<svg xmlns="http://www.w3.org/2000/svg" viewBox="0 0 16.09 26.7" height="100" width="100">
  <defs>
    <style>
      .cls-1 {
        fill: none;
        stroke: #fff;
        stroke-miterlimit: 10;
        stroke-width: 3px;
      }
      .cls-2 {
        fill: #fff;
      }
    </style>
  </defs>
  <title>play-button</title>
  <polygon class="cls-1" points="1.5 2.77 1.5 18.2 13.34 10.48 1.5 2.77" />
  <path
    class="cls-2"
    d="M3.37,23.68a1.37,1.37,0,0,1-.32.85,1.18,1.18,0,0,1-.5.34,2.1,2.1,0,0,1-.78.13H1.12V26.7H.06V22.35H1.77A1.66,1.66,0,0,1,3,22.74,1.24,1.24,0,0,1,3.37,23.68Zm-2.26.52h.66a.51.51,0,0,0,.38-.14.51.51,0,0,0,.14-.37.53.53,0,0,0-.14-.38.5.5,0,0,0-.38-.15H1.12Z"
  />
  <path class="cls-2" d="M4,22.35H5.07V25.9H6.39v.81H4Z" />
  <path class="cls-2" d="M9.74,26.7,9.5,26H7.94l-.24.73H6.57l1.51-4.36H9.37l1.51,4.36ZM8.21,25.17h1l-.51-1.55Z" />
  <path class="cls-2" d="M13.59,26.7H12.53V25.3l-1.51-3h1.2l.84,2,.83-2h1.2l-1.51,3Z" />  
</svg>
